P3
100 50
255
255 255 255   0 0 0  255 255 255   0 0 0  255 255 255   0 0 0  255 255 255   0 0 0  255 255 255   0 0 0  255 255 255   0 0 0  255 255 255   0 0 0  255 255 255   0 0 0  255 255 255   0 0 0  255 255 255   0 0 0  255 255 255   0 0 0  255 255 255   0 0 0  255 255 255   0 0 0  255 255 255   0 0 0  255 255 255   0 0 0  255 255 255   0 0 0  255 255 255   0 0 0  255 255 255   0 0 0  255 255 255   0 0 0  255 255 255   0 0 0  255 255 255   0 0 0  255 255 255   0 0 0  255 255 255   0 0 0  255 255 255   0 0 0  255 255 255   0 0 0  255 255 255   0 0 0  255 255 255   0 0 0  255 255 255   0 0 0  255 255 255   0 0 0  255 255 255   0 0 0  255 255 255   0 0 0  255 255 255   0 0 0  255 255 255   0 0 0  255 255 255   0 0 0  255 255 255   0 0 0  255 255 255   0 0 0  255 255 255   0 0 0  255 255 255   0 0 0  255 255 255   0 0 0  255 255 255   0 0 0  255 255 255   0 0 0  255 255 255   0 0 0  255 255 255   0 0 0  255 255 255   0 0 0  255 255 255   0 0 0  255 255 255   0 0 0  255 255 255   0 0 0  255 255 255   0 0 0  255 255 255   0 0 0  255 255 255   0 0 0  

0 0 0  250 250 250   0 0 0  250 250 250   0 0 0  250 250 250   0 0 0  250 250 250   0 0 0  250 250 250   0 0 0  250 250 250   0 0 0  250 250 250   0 0 0  250 250 250   0 0 0  250 250 250   0 0 0  250 250 250   0 0 0  250 250 250   0 0 0  250 250 250   0 0 0  250 250 250   0 0 0  250 250 250   0 0 0  250 250 250   0 0 0  250 250 250   0 0 0  250 250 250   0 0 0  250 250 250   0 0 0  250 250 250   0 0 0  250 250 250   0 0 0  250 250 250   0 0 0  250 250 250   0 0 0  250 250 250   0 0 0  250 250 250   0 0 0  250 250 250   0 0 0  250 250 250   0 0 0  250 250 250   0 0 0  250 250 250   0 0 0  250 250 250   0 0 0  250 250 250   0 0 0  250 250 250   0 0 0  250 250 250   0 0 0  250 250 250   0 0 0  250 250 250   0 0 0  250 250 250   0 0 0  250 250 250   0 0 0  250 250 250   0 0 0  250 250 250   0 0 0  250 250 250   0 0 0  250 250 250   0 0 0  250 250 250   0 0 0  250 250 250   0 0 0  250 250 250   0 0 0  250 250 250   0 0 0  250 250 250   0 0 0  250 250 250   0 0 0  250 250 250   0 0 0  250 250 250   0 0 0  250 250 250   0 0 0  250 250 250   

245 245 245   0 0 0  245 245 245   0 0 0  245 245 245   0 0 0  245 245 245   0 0 0  245 245 245   0 0 0  245 245 245   0 0 0  245 245 245   0 0 0  245 245 245   0 0 0  245 245 245   0 0 0  245 245 245   0 0 0  245 245 245   0 0 0  245 245 245   0 0 0  245 245 245   0 0 0  245 245 245   0 0 0  245 245 245   0 0 0  245 245 245   0 0 0  245 245 245   0 0 0  245 245 245   0 0 0  245 245 245   0 0 0  245 245 245   0 0 0  245 245 245   0 0 0  245 245 245   0 0 0  245 245 245   0 0 0  245 245 245   0 0 0  245 245 245   0 0 0  245 245 245   0 0 0  245 245 245   0 0 0  245 245 245   0 0 0  245 245 245   0 0 0  245 245 245   0 0 0  245 245 245   0 0 0  245 245 245   0 0 0  245 245 245   0 0 0  245 245 245   0 0 0  245 245 245   0 0 0  245 245 245   0 0 0  245 245 245   0 0 0  245 245 245   0 0 0  245 245 245   0 0 0  245 245 245   0 0 0  245 245 245   0 0 0  245 245 245   0 0 0  245 245 245   0 0 0  245 245 245   0 0 0  245 245 245   0 0 0  245 245 245   0 0 0  245 245 245   0 0 0  245 245 245   0 0 0  245 245 245   0 0 0  245 245 245   0 0 0  

0 0 0  240 240 240   0 0 0  240 240 240   0 0 0  240 240 240   0 0 0  240 240 240   0 0 0  240 240 240   0 0 0  240 240 240   0 0 0  240 240 240   0 0 0  240 240 240   0 0 0  240 240 240   0 0 0  240 240 240   0 0 0  240 240 240   0 0 0  240 240 240   0 0 0  240 240 240   0 0 0  240 240 240   0 0 0  240 240 240   0 0 0  240 240 240   0 0 0  240 240 240   0 0 0  240 240 240   0 0 0  240 240 240   0 0 0  240 240 240   0 0 0  240 240 240   0 0 0  240 240 240   0 0 0  240 240 240   0 0 0  240 240 240   0 0 0  240 240 240   0 0 0  240 240 240   0 0 0  240 240 240   0 0 0  240 240 240   0 0 0  240 240 240   0 0 0  240 240 240   0 0 0  240 240 240   0 0 0  240 240 240   0 0 0  240 240 240   0 0 0  240 240 240   0 0 0  240 240 240   0 0 0  240 240 240   0 0 0  240 240 240   0 0 0  240 240 240   0 0 0  240 240 240   0 0 0  240 240 240   0 0 0  240 240 240   0 0 0  240 240 240   0 0 0  240 240 240   0 0 0  240 240 240   0 0 0  240 240 240   0 0 0  240 240 240   0 0 0  240 240 240   0 0 0  240 240 240   0 0 0  240 240 240   0 0 0  240 240 240   

235 235 235   0 0 0  235 235 235   0 0 0  235 235 235   0 0 0  235 235 235   0 0 0  235 235 235   0 0 0  235 235 235   0 0 0  235 235 235   0 0 0  235 235 235   0 0 0  235 235 235   0 0 0  235 235 235   0 0 0  235 235 235   0 0 0  235 235 235   0 0 0  235 235 235   0 0 0  235 235 235   0 0 0  235 235 235   0 0 0  235 235 235   0 0 0  235 235 235   0 0 0  235 235 235   0 0 0  235 235 235   0 0 0  235 235 235   0 0 0  235 235 235   0 0 0  235 235 235   0 0 0  235 235 235   0 0 0  235 235 235   0 0 0  235 235 235   0 0 0  235 235 235   0 0 0  235 235 235   0 0 0  235 235 235   0 0 0  235 235 235   0 0 0  235 235 235   0 0 0  235 235 235   0 0 0  235 235 235   0 0 0  235 235 235   0 0 0  235 235 235   0 0 0  235 235 235   0 0 0  235 235 235   0 0 0  235 235 235   0 0 0  235 235 235   0 0 0  235 235 235   0 0 0  235 235 235   0 0 0  235 235 235   0 0 0  235 235 235   0 0 0  235 235 235   0 0 0  235 235 235   0 0 0  235 235 235   0 0 0  235 235 235   0 0 0  235 235 235   0 0 0  235 235 235   0 0 0  235 235 235   0 0 0  235 235 235   0 0 0  

0 0 0  230 230 230   0 0 0  230 230 230   0 0 0  230 230 230   0 0 0  230 230 230   0 0 0  230 230 230   0 0 0  230 230 230   0 0 0  230 230 230   0 0 0  230 230 230   0 0 0  230 230 230   0 0 0  230 230 230   0 0 0  230 230 230   0 0 0  230 230 230   0 0 0  230 230 230   0 0 0  230 230 230   0 0 0  230 230 230   0 0 0  230 230 230   0 0 0  230 230 230   0 0 0  230 230 230   0 0 0  230 230 230   0 0 0  230 230 230   0 0 0  230 230 230   0 0 0  230 230 230   0 0 0  230 230 230   0 0 0  230 230 230   0 0 0  230 230 230   0 0 0  230 230 230   0 0 0  230 230 230   0 0 0  230 230 230   0 0 0  230 230 230   0 0 0  230 230 230   0 0 0  230 230 230   0 0 0  230 230 230   0 0 0  230 230 230   0 0 0  230 230 230   0 0 0  230 230 230   0 0 0  230 230 230   0 0 0  230 230 230   0 0 0  230 230 230   0 0 0  230 230 230   0 0 0  230 230 230   0 0 0  230 230 230   0 0 0  230 230 230   0 0 0  230 230 230   0 0 0  230 230 230   0 0 0  230 230 230   0 0 0  230 230 230   0 0 0  230 230 230   0 0 0  230 230 230   0 0 0  230 230 230   0 0 0  230 230 230   

225 225 225   0 0 0  225 225 225   0 0 0  225 225 225   0 0 0  225 225 225   0 0 0  225 225 225   0 0 0  225 225 225   0 0 0  225 225 225   0 0 0  225 225 225   0 0 0  225 225 225   0 0 0  225 225 225   0 0 0  225 225 225   0 0 0  225 225 225   0 0 0  225 225 225   0 0 0  225 225 225   0 0 0  225 225 225   0 0 0  225 225 225   0 0 0  225 225 225   0 0 0  225 225 225   0 0 0  225 225 225   0 0 0  225 225 225   0 0 0  225 225 225   0 0 0  225 225 225   0 0 0  225 225 225   0 0 0  225 225 225   0 0 0  225 225 225   0 0 0  225 225 225   0 0 0  225 225 225   0 0 0  225 225 225   0 0 0  225 225 225   0 0 0  225 225 225   0 0 0  225 225 225   0 0 0  225 225 225   0 0 0  225 225 225   0 0 0  225 225 225   0 0 0  225 225 225   0 0 0  225 225 225   0 0 0  225 225 225   0 0 0  225 225 225   0 0 0  225 225 225   0 0 0  225 225 225   0 0 0  225 225 225   0 0 0  225 225 225   0 0 0  225 225 225   0 0 0  225 225 225   0 0 0  225 225 225   0 0 0  225 225 225   0 0 0  225 225 225   0 0 0  225 225 225   0 0 0  225 225 225   0 0 0  225 225 225   0 0 0  

0 0 0  220 220 220   0 0 0  220 220 220   0 0 0  220 220 220   0 0 0  220 220 220   0 0 0  220 220 220   0 0 0  220 220 220   0 0 0  220 220 220   0 0 0  220 220 220   0 0 0  220 220 220   0 0 0  220 220 220   0 0 0  220 220 220   0 0 0  220 220 220   0 0 0  220 220 220   0 0 0  220 220 220   0 0 0  220 220 220   0 0 0  220 220 220   0 0 0  220 220 220   0 0 0  220 220 220   0 0 0  220 220 220   0 0 0  220 220 220   0 0 0  220 220 220   0 0 0  220 220 220   0 0 0  220 220 220   0 0 0  220 220 220   0 0 0  220 220 220   0 0 0  220 220 220   0 0 0  220 220 220   0 0 0  220 220 220   0 0 0  220 220 220   0 0 0  220 220 220   0 0 0  220 220 220   0 0 0  220 220 220   0 0 0  220 220 220   0 0 0  220 220 220   0 0 0  220 220 220   0 0 0  220 220 220   0 0 0  220 220 220   0 0 0  220 220 220   0 0 0  220 220 220   0 0 0  220 220 220   0 0 0  220 220 220   0 0 0  220 220 220   0 0 0  220 220 220   0 0 0  220 220 220   0 0 0  220 220 220   0 0 0  220 220 220   0 0 0  220 220 220   0 0 0  220 220 220   0 0 0  220 220 220   0 0 0  220 220 220   

215 215 215   0 0 0  215 215 215   0 0 0  215 215 215   0 0 0  215 215 215   0 0 0  215 215 215   0 0 0  215 215 215   0 0 0  215 215 215   0 0 0  215 215 215   0 0 0  215 215 215   0 0 0  215 215 215   0 0 0  215 215 215   0 0 0  215 215 215   0 0 0  215 215 215   0 0 0  215 215 215   0 0 0  215 215 215   0 0 0  215 215 215   0 0 0  215 215 215   0 0 0  215 215 215   0 0 0  215 215 215   0 0 0  215 215 215   0 0 0  215 215 215   0 0 0  215 215 215   0 0 0  215 215 215   0 0 0  215 215 215   0 0 0  215 215 215   0 0 0  215 215 215   0 0 0  215 215 215   0 0 0  215 215 215   0 0 0  215 215 215   0 0 0  215 215 215   0 0 0  215 215 215   0 0 0  215 215 215   0 0 0  215 215 215   0 0 0  215 215 215   0 0 0  215 215 215   0 0 0  215 215 215   0 0 0  215 215 215   0 0 0  215 215 215   0 0 0  215 215 215   0 0 0  215 215 215   0 0 0  215 215 215   0 0 0  215 215 215   0 0 0  215 215 215   0 0 0  215 215 215   0 0 0  215 215 215   0 0 0  215 215 215   0 0 0  215 215 215   0 0 0  215 215 215   0 0 0  215 215 215   0 0 0  215 215 215   0 0 0  

0 0 0  210 210 210   0 0 0  210 210 210   0 0 0  210 210 210   0 0 0  210 210 210   0 0 0  210 210 210   0 0 0  210 210 210   0 0 0  210 210 210   0 0 0  210 210 210   0 0 0  210 210 210   0 0 0  210 210 210   0 0 0  210 210 210   0 0 0  210 210 210   0 0 0  210 210 210   0 0 0  210 210 210   0 0 0  210 210 210   0 0 0  210 210 210   0 0 0  210 210 210   0 0 0  210 210 210   0 0 0  210 210 210   0 0 0  210 210 210   0 0 0  210 210 210   0 0 0  210 210 210   0 0 0  210 210 210   0 0 0  210 210 210   0 0 0  210 210 210   0 0 0  210 210 210   0 0 0  210 210 210   0 0 0  210 210 210   0 0 0  210 210 210   0 0 0  210 210 210   0 0 0  210 210 210   0 0 0  210 210 210   0 0 0  210 210 210   0 0 0  210 210 210   0 0 0  210 210 210   0 0 0  210 210 210   0 0 0  210 210 210   0 0 0  210 210 210   0 0 0  210 210 210   0 0 0  210 210 210   0 0 0  210 210 210   0 0 0  210 210 210   0 0 0  210 210 210   0 0 0  210 210 210   0 0 0  210 210 210   0 0 0  210 210 210   0 0 0  210 210 210   0 0 0  210 210 210   0 0 0  210 210 210   0 0 0  210 210 210   

205 205 205   0 0 0  205 205 205   0 0 0  205 205 205   0 0 0  205 205 205   0 0 0  205 205 205   0 0 0  205 205 205   0 0 0  205 205 205   0 0 0  205 205 205   0 0 0  205 205 205   0 0 0  205 205 205   0 0 0  205 205 205   0 0 0  205 205 205   0 0 0  205 205 205   0 0 0  205 205 205   0 0 0  205 205 205   0 0 0  205 205 205   0 0 0  205 205 205   0 0 0  205 205 205   0 0 0  205 205 205   0 0 0  205 205 205   0 0 0  205 205 205   0 0 0  205 205 205   0 0 0  205 205 205   0 0 0  205 205 205   0 0 0  205 205 205   0 0 0  205 205 205   0 0 0  205 205 205   0 0 0  205 205 205   0 0 0  205 205 205   0 0 0  205 205 205   0 0 0  205 205 205   0 0 0  205 205 205   0 0 0  205 205 205   0 0 0  205 205 205   0 0 0  205 205 205   0 0 0  205 205 205   0 0 0  205 205 205   0 0 0  205 205 205   0 0 0  205 205 205   0 0 0  205 205 205   0 0 0  205 205 205   0 0 0  205 205 205   0 0 0  205 205 205   0 0 0  205 205 205   0 0 0  205 205 205   0 0 0  205 205 205   0 0 0  205 205 205   0 0 0  205 205 205   0 0 0  205 205 205   0 0 0  205 205 205   0 0 0  

0 0 0  200 200 200   0 0 0  200 200 200   0 0 0  200 200 200   0 0 0  200 200 200   0 0 0  200 200 200   0 0 0  200 200 200   0 0 0  200 200 200   0 0 0  200 200 200   0 0 0  200 200 200   0 0 0  200 200 200   0 0 0  200 200 200   0 0 0  200 200 200   0 0 0  200 200 200   0 0 0  200 200 200   0 0 0  200 200 200   0 0 0  200 200 200   0 0 0  200 200 200   0 0 0  200 200 200   0 0 0  200 200 200   0 0 0  200 200 200   0 0 0  200 200 200   0 0 0  200 200 200   0 0 0  200 200 200   0 0 0  200 200 200   0 0 0  200 200 200   0 0 0  200 200 200   0 0 0  200 200 200   0 0 0  200 200 200   0 0 0  200 200 200   0 0 0  200 200 200   0 0 0  200 200 200   0 0 0  200 200 200   0 0 0  200 200 200   0 0 0  200 200 200   0 0 0  200 200 200   0 0 0  200 200 200   0 0 0  200 200 200   0 0 0  200 200 200   0 0 0  200 200 200   0 0 0  200 200 200   0 0 0  200 200 200   0 0 0  200 200 200   0 0 0  200 200 200   0 0 0  200 200 200   0 0 0  200 200 200   0 0 0  200 200 200   0 0 0  200 200 200   0 0 0  200 200 200   0 0 0  200 200 200   0 0 0  200 200 200   

195 195 195   0 0 0  195 195 195   0 0 0  195 195 195   0 0 0  195 195 195   0 0 0  195 195 195   0 0 0  195 195 195   0 0 0  195 195 195   0 0 0  195 195 195   0 0 0  195 195 195   0 0 0  195 195 195   0 0 0  195 195 195   0 0 0  195 195 195   0 0 0  195 195 195   0 0 0  195 195 195   0 0 0  195 195 195   0 0 0  195 195 195   0 0 0  195 195 195   0 0 0  195 195 195   0 0 0  195 195 195   0 0 0  195 195 195   0 0 0  195 195 195   0 0 0  195 195 195   0 0 0  195 195 195   0 0 0  195 195 195   0 0 0  195 195 195   0 0 0  195 195 195   0 0 0  195 195 195   0 0 0  195 195 195   0 0 0  195 195 195   0 0 0  195 195 195   0 0 0  195 195 195   0 0 0  195 195 195   0 0 0  195 195 195   0 0 0  195 195 195   0 0 0  195 195 195   0 0 0  195 195 195   0 0 0  195 195 195   0 0 0  195 195 195   0 0 0  195 195 195   0 0 0  195 195 195   0 0 0  195 195 195   0 0 0  195 195 195   0 0 0  195 195 195   0 0 0  195 195 195   0 0 0  195 195 195   0 0 0  195 195 195   0 0 0  195 195 195   0 0 0  195 195 195   0 0 0  195 195 195   0 0 0  195 195 195   0 0 0  

0 0 0  190 190 190   0 0 0  190 190 190   0 0 0  190 190 190   0 0 0  190 190 190   0 0 0  190 190 190   0 0 0  190 190 190   0 0 0  190 190 190   0 0 0  190 190 190   0 0 0  190 190 190   0 0 0  190 190 190   0 0 0  190 190 190   0 0 0  190 190 190   0 0 0  190 190 190   0 0 0  190 190 190   0 0 0  190 190 190   0 0 0  190 190 190   0 0 0  190 190 190   0 0 0  190 190 190   0 0 0  190 190 190   0 0 0  190 190 190   0 0 0  190 190 190   0 0 0  190 190 190   0 0 0  190 190 190   0 0 0  190 190 190   0 0 0  190 190 190   0 0 0  190 190 190   0 0 0  190 190 190   0 0 0  190 190 190   0 0 0  190 190 190   0 0 0  190 190 190   0 0 0  190 190 190   0 0 0  190 190 190   0 0 0  190 190 190   0 0 0  190 190 190   0 0 0  190 190 190   0 0 0  190 190 190   0 0 0  190 190 190   0 0 0  190 190 190   0 0 0  190 190 190   0 0 0  190 190 190   0 0 0  190 190 190   0 0 0  190 190 190   0 0 0  190 190 190   0 0 0  190 190 190   0 0 0  190 190 190   0 0 0  190 190 190   0 0 0  190 190 190   0 0 0  190 190 190   0 0 0  190 190 190   0 0 0  190 190 190   

185 185 185   0 0 0  185 185 185   0 0 0  185 185 185   0 0 0  185 185 185   0 0 0  185 185 185   0 0 0  185 185 185   0 0 0  185 185 185   0 0 0  185 185 185   0 0 0  185 185 185   0 0 0  185 185 185   0 0 0  185 185 185   0 0 0  185 185 185   0 0 0  185 185 185   0 0 0  185 185 185   0 0 0  185 185 185   0 0 0  185 185 185   0 0 0  185 185 185   0 0 0  185 185 185   0 0 0  185 185 185   0 0 0  185 185 185   0 0 0  185 185 185   0 0 0  185 185 185   0 0 0  185 185 185   0 0 0  185 185 185   0 0 0  185 185 185   0 0 0  185 185 185   0 0 0  185 185 185   0 0 0  185 185 185   0 0 0  185 185 185   0 0 0  185 185 185   0 0 0  185 185 185   0 0 0  185 185 185   0 0 0  185 185 185   0 0 0  185 185 185   0 0 0  185 185 185   0 0 0  185 185 185   0 0 0  185 185 185   0 0 0  185 185 185   0 0 0  185 185 185   0 0 0  185 185 185   0 0 0  185 185 185   0 0 0  185 185 185   0 0 0  185 185 185   0 0 0  185 185 185   0 0 0  185 185 185   0 0 0  185 185 185   0 0 0  185 185 185   0 0 0  185 185 185   0 0 0  185 185 185   0 0 0  185 185 185   0 0 0  

0 0 0  180 180 180   0 0 0  180 180 180   0 0 0  180 180 180   0 0 0  180 180 180   0 0 0  180 180 180   0 0 0  180 180 180   0 0 0  180 180 180   0 0 0  180 180 180   0 0 0  180 180 180   0 0 0  180 180 180   0 0 0  180 180 180   0 0 0  180 180 180   0 0 0  180 180 180   0 0 0  180 180 180   0 0 0  180 180 180   0 0 0  180 180 180   0 0 0  180 180 180   0 0 0  180 180 180   0 0 0  180 180 180   0 0 0  180 180 180   0 0 0  180 180 180   0 0 0  180 180 180   0 0 0  180 180 180   0 0 0  180 180 180   0 0 0  180 180 180   0 0 0  180 180 180   0 0 0  180 180 180   0 0 0  180 180 180   0 0 0  180 180 180   0 0 0  180 180 180   0 0 0  180 180 180   0 0 0  180 180 180   0 0 0  180 180 180   0 0 0  180 180 180   0 0 0  180 180 180   0 0 0  180 180 180   0 0 0  180 180 180   0 0 0  180 180 180   0 0 0  180 180 180   0 0 0  180 180 180   0 0 0  180 180 180   0 0 0  180 180 180   0 0 0  180 180 180   0 0 0  180 180 180   0 0 0  180 180 180   0 0 0  180 180 180   0 0 0  180 180 180   0 0 0  180 180 180   0 0 0  180 180 180   0 0 0  180 180 180   

175 175 175   0 0 0  175 175 175   0 0 0  175 175 175   0 0 0  175 175 175   0 0 0  175 175 175   0 0 0  175 175 175   0 0 0  175 175 175   0 0 0  175 175 175   0 0 0  175 175 175   0 0 0  175 175 175   0 0 0  175 175 175   0 0 0  175 175 175   0 0 0  175 175 175   0 0 0  175 175 175   0 0 0  175 175 175   0 0 0  175 175 175   0 0 0  175 175 175   0 0 0  175 175 175   0 0 0  175 175 175   0 0 0  175 175 175   0 0 0  175 175 175   0 0 0  175 175 175   0 0 0  175 175 175   0 0 0  175 175 175   0 0 0  175 175 175   0 0 0  175 175 175   0 0 0  175 175 175   0 0 0  175 175 175   0 0 0  175 175 175   0 0 0  175 175 175   0 0 0  175 175 175   0 0 0  175 175 175   0 0 0  175 175 175   0 0 0  175 175 175   0 0 0  175 175 175   0 0 0  175 175 175   0 0 0  175 175 175   0 0 0  175 175 175   0 0 0  175 175 175   0 0 0  175 175 175   0 0 0  175 175 175   0 0 0  175 175 175   0 0 0  175 175 175   0 0 0  175 175 175   0 0 0  175 175 175   0 0 0  175 175 175   0 0 0  175 175 175   0 0 0  175 175 175   0 0 0  175 175 175   0 0 0  175 175 175   0 0 0  

0 0 0  170 170 170   0 0 0  170 170 170   0 0 0  170 170 170   0 0 0  170 170 170   0 0 0  170 170 170   0 0 0  170 170 170   0 0 0  170 170 170   0 0 0  170 170 170   0 0 0  170 170 170   0 0 0  170 170 170   0 0 0  170 170 170   0 0 0  170 170 170   0 0 0  170 170 170   0 0 0  170 170 170   0 0 0  170 170 170   0 0 0  170 170 170   0 0 0  170 170 170   0 0 0  170 170 170   0 0 0  170 170 170   0 0 0  170 170 170   0 0 0  170 170 170   0 0 0  170 170 170   0 0 0  170 170 170   0 0 0  170 170 170   0 0 0  170 170 170   0 0 0  170 170 170   0 0 0  170 170 170   0 0 0  170 170 170   0 0 0  170 170 170   0 0 0  170 170 170   0 0 0  170 170 170   0 0 0  170 170 170   0 0 0  170 170 170   0 0 0  170 170 170   0 0 0  170 170 170   0 0 0  170 170 170   0 0 0  170 170 170   0 0 0  170 170 170   0 0 0  170 170 170   0 0 0  170 170 170   0 0 0  170 170 170   0 0 0  170 170 170   0 0 0  170 170 170   0 0 0  170 170 170   0 0 0  170 170 170   0 0 0  170 170 170   0 0 0  170 170 170   0 0 0  170 170 170   0 0 0  170 170 170   0 0 0  170 170 170   

165 165 165   0 0 0  165 165 165   0 0 0  165 165 165   0 0 0  165 165 165   0 0 0  165 165 165   0 0 0  165 165 165   0 0 0  165 165 165   0 0 0  165 165 165   0 0 0  165 165 165   0 0 0  165 165 165   0 0 0  165 165 165   0 0 0  165 165 165   0 0 0  165 165 165   0 0 0  165 165 165   0 0 0  165 165 165   0 0 0  165 165 165   0 0 0  165 165 165   0 0 0  165 165 165   0 0 0  165 165 165   0 0 0  165 165 165   0 0 0  165 165 165   0 0 0  165 165 165   0 0 0  165 165 165   0 0 0  165 165 165   0 0 0  165 165 165   0 0 0  165 165 165   0 0 0  165 165 165   0 0 0  165 165 165   0 0 0  165 165 165   0 0 0  165 165 165   0 0 0  165 165 165   0 0 0  165 165 165   0 0 0  165 165 165   0 0 0  165 165 165   0 0 0  165 165 165   0 0 0  165 165 165   0 0 0  165 165 165   0 0 0  165 165 165   0 0 0  165 165 165   0 0 0  165 165 165   0 0 0  165 165 165   0 0 0  165 165 165   0 0 0  165 165 165   0 0 0  165 165 165   0 0 0  165 165 165   0 0 0  165 165 165   0 0 0  165 165 165   0 0 0  165 165 165   0 0 0  165 165 165   0 0 0  165 165 165   0 0 0  

0 0 0  160 160 160   0 0 0  160 160 160   0 0 0  160 160 160   0 0 0  160 160 160   0 0 0  160 160 160   0 0 0  160 160 160   0 0 0  160 160 160   0 0 0  160 160 160   0 0 0  160 160 160   0 0 0  160 160 160   0 0 0  160 160 160   0 0 0  160 160 160   0 0 0  160 160 160   0 0 0  160 160 160   0 0 0  160 160 160   0 0 0  160 160 160   0 0 0  160 160 160   0 0 0  160 160 160   0 0 0  160 160 160   0 0 0  160 160 160   0 0 0  160 160 160   0 0 0  160 160 160   0 0 0  160 160 160   0 0 0  160 160 160   0 0 0  160 160 160   0 0 0  160 160 160   0 0 0  160 160 160   0 0 0  160 160 160   0 0 0  160 160 160   0 0 0  160 160 160   0 0 0  160 160 160   0 0 0  160 160 160   0 0 0  160 160 160   0 0 0  160 160 160   0 0 0  160 160 160   0 0 0  160 160 160   0 0 0  160 160 160   0 0 0  160 160 160   0 0 0  160 160 160   0 0 0  160 160 160   0 0 0  160 160 160   0 0 0  160 160 160   0 0 0  160 160 160   0 0 0  160 160 160   0 0 0  160 160 160   0 0 0  160 160 160   0 0 0  160 160 160   0 0 0  160 160 160   0 0 0  160 160 160   0 0 0  160 160 160   

155 155 155   0 0 0  155 155 155   0 0 0  155 155 155   0 0 0  155 155 155   0 0 0  155 155 155   0 0 0  155 155 155   0 0 0  155 155 155   0 0 0  155 155 155   0 0 0  155 155 155   0 0 0  155 155 155   0 0 0  155 155 155   0 0 0  155 155 155   0 0 0  155 155 155   0 0 0  155 155 155   0 0 0  155 155 155   0 0 0  155 155 155   0 0 0  155 155 155   0 0 0  155 155 155   0 0 0  155 155 155   0 0 0  155 155 155   0 0 0  155 155 155   0 0 0  155 155 155   0 0 0  155 155 155   0 0 0  155 155 155   0 0 0  155 155 155   0 0 0  155 155 155   0 0 0  155 155 155   0 0 0  155 155 155   0 0 0  155 155 155   0 0 0  155 155 155   0 0 0  155 155 155   0 0 0  155 155 155   0 0 0  155 155 155   0 0 0  155 155 155   0 0 0  155 155 155   0 0 0  155 155 155   0 0 0  155 155 155   0 0 0  155 155 155   0 0 0  155 155 155   0 0 0  155 155 155   0 0 0  155 155 155   0 0 0  155 155 155   0 0 0  155 155 155   0 0 0  155 155 155   0 0 0  155 155 155   0 0 0  155 155 155   0 0 0  155 155 155   0 0 0  155 155 155   0 0 0  155 155 155   0 0 0  155 155 155   0 0 0  

0 0 0  150 150 150   0 0 0  150 150 150   0 0 0  150 150 150   0 0 0  150 150 150   0 0 0  150 150 150   0 0 0  150 150 150   0 0 0  150 150 150   0 0 0  150 150 150   0 0 0  150 150 150   0 0 0  150 150 150   0 0 0  150 150 150   0 0 0  150 150 150   0 0 0  150 150 150   0 0 0  150 150 150   0 0 0  150 150 150   0 0 0  150 150 150   0 0 0  150 150 150   0 0 0  150 150 150   0 0 0  150 150 150   0 0 0  150 150 150   0 0 0  150 150 150   0 0 0  150 150 150   0 0 0  150 150 150   0 0 0  150 150 150   0 0 0  150 150 150   0 0 0  150 150 150   0 0 0  150 150 150   0 0 0  150 150 150   0 0 0  150 150 150   0 0 0  150 150 150   0 0 0  150 150 150   0 0 0  150 150 150   0 0 0  150 150 150   0 0 0  150 150 150   0 0 0  150 150 150   0 0 0  150 150 150   0 0 0  150 150 150   0 0 0  150 150 150   0 0 0  150 150 150   0 0 0  150 150 150   0 0 0  150 150 150   0 0 0  150 150 150   0 0 0  150 150 150   0 0 0  150 150 150   0 0 0  150 150 150   0 0 0  150 150 150   0 0 0  150 150 150   0 0 0  150 150 150   0 0 0  150 150 150   0 0 0  150 150 150   

145 145 145   0 0 0  145 145 145   0 0 0  145 145 145   0 0 0  145 145 145   0 0 0  145 145 145   0 0 0  145 145 145   0 0 0  145 145 145   0 0 0  145 145 145   0 0 0  145 145 145   0 0 0  145 145 145   0 0 0  145 145 145   0 0 0  145 145 145   0 0 0  145 145 145   0 0 0  145 145 145   0 0 0  145 145 145   0 0 0  145 145 145   0 0 0  145 145 145   0 0 0  145 145 145   0 0 0  145 145 145   0 0 0  145 145 145   0 0 0  145 145 145   0 0 0  145 145 145   0 0 0  145 145 145   0 0 0  145 145 145   0 0 0  145 145 145   0 0 0  145 145 145   0 0 0  145 145 145   0 0 0  145 145 145   0 0 0  145 145 145   0 0 0  145 145 145   0 0 0  145 145 145   0 0 0  145 145 145   0 0 0  145 145 145   0 0 0  145 145 145   0 0 0  145 145 145   0 0 0  145 145 145   0 0 0  145 145 145   0 0 0  145 145 145   0 0 0  145 145 145   0 0 0  145 145 145   0 0 0  145 145 145   0 0 0  145 145 145   0 0 0  145 145 145   0 0 0  145 145 145   0 0 0  145 145 145   0 0 0  145 145 145   0 0 0  145 145 145   0 0 0  145 145 145   0 0 0  145 145 145   0 0 0  145 145 145   0 0 0  

0 0 0  140 140 140   0 0 0  140 140 140   0 0 0  140 140 140   0 0 0  140 140 140   0 0 0  140 140 140   0 0 0  140 140 140   0 0 0  140 140 140   0 0 0  140 140 140   0 0 0  140 140 140   0 0 0  140 140 140   0 0 0  140 140 140   0 0 0  140 140 140   0 0 0  140 140 140   0 0 0  140 140 140   0 0 0  140 140 140   0 0 0  140 140 140   0 0 0  140 140 140   0 0 0  140 140 140   0 0 0  140 140 140   0 0 0  140 140 140   0 0 0  140 140 140   0 0 0  140 140 140   0 0 0  140 140 140   0 0 0  140 140 140   0 0 0  140 140 140   0 0 0  140 140 140   0 0 0  140 140 140   0 0 0  140 140 140   0 0 0  140 140 140   0 0 0  140 140 140   0 0 0  140 140 140   0 0 0  140 140 140   0 0 0  140 140 140   0 0 0  140 140 140   0 0 0  140 140 140   0 0 0  140 140 140   0 0 0  140 140 140   0 0 0  140 140 140   0 0 0  140 140 140   0 0 0  140 140 140   0 0 0  140 140 140   0 0 0  140 140 140   0 0 0  140 140 140   0 0 0  140 140 140   0 0 0  140 140 140   0 0 0  140 140 140   0 0 0  140 140 140   0 0 0  140 140 140   0 0 0  140 140 140   0 0 0  140 140 140   

135 135 135   0 0 0  135 135 135   0 0 0  135 135 135   0 0 0  135 135 135   0 0 0  135 135 135   0 0 0  135 135 135   0 0 0  135 135 135   0 0 0  135 135 135   0 0 0  135 135 135   0 0 0  135 135 135   0 0 0  135 135 135   0 0 0  135 135 135   0 0 0  135 135 135   0 0 0  135 135 135   0 0 0  135 135 135   0 0 0  135 135 135   0 0 0  135 135 135   0 0 0  135 135 135   0 0 0  135 135 135   0 0 0  135 135 135   0 0 0  135 135 135   0 0 0  135 135 135   0 0 0  135 135 135   0 0 0  135 135 135   0 0 0  135 135 135   0 0 0  135 135 135   0 0 0  135 135 135   0 0 0  135 135 135   0 0 0  135 135 135   0 0 0  135 135 135   0 0 0  135 135 135   0 0 0  135 135 135   0 0 0  135 135 135   0 0 0  135 135 135   0 0 0  135 135 135   0 0 0  135 135 135   0 0 0  135 135 135   0 0 0  135 135 135   0 0 0  135 135 135   0 0 0  135 135 135   0 0 0  135 135 135   0 0 0  135 135 135   0 0 0  135 135 135   0 0 0  135 135 135   0 0 0  135 135 135   0 0 0  135 135 135   0 0 0  135 135 135   0 0 0  135 135 135   0 0 0  135 135 135   0 0 0  135 135 135   0 0 0  

0 0 0  130 130 130   0 0 0  130 130 130   0 0 0  130 130 130   0 0 0  130 130 130   0 0 0  130 130 130   0 0 0  130 130 130   0 0 0  130 130 130   0 0 0  130 130 130   0 0 0  130 130 130   0 0 0  130 130 130   0 0 0  130 130 130   0 0 0  130 130 130   0 0 0  130 130 130   0 0 0  130 130 130   0 0 0  130 130 130   0 0 0  130 130 130   0 0 0  130 130 130   0 0 0  130 130 130   0 0 0  130 130 130   0 0 0  130 130 130   0 0 0  130 130 130   0 0 0  130 130 130   0 0 0  130 130 130   0 0 0  130 130 130   0 0 0  130 130 130   0 0 0  130 130 130   0 0 0  130 130 130   0 0 0  130 130 130   0 0 0  130 130 130   0 0 0  130 130 130   0 0 0  130 130 130   0 0 0  130 130 130   0 0 0  130 130 130   0 0 0  130 130 130   0 0 0  130 130 130   0 0 0  130 130 130   0 0 0  130 130 130   0 0 0  130 130 130   0 0 0  130 130 130   0 0 0  130 130 130   0 0 0  130 130 130   0 0 0  130 130 130   0 0 0  130 130 130   0 0 0  130 130 130   0 0 0  130 130 130   0 0 0  130 130 130   0 0 0  130 130 130   0 0 0  130 130 130   0 0 0  130 130 130   0 0 0  130 130 130   

125 125 125   0 0 0  125 125 125   0 0 0  125 125 125   0 0 0  125 125 125   0 0 0  125 125 125   0 0 0  125 125 125   0 0 0  125 125 125   0 0 0  125 125 125   0 0 0  125 125 125   0 0 0  125 125 125   0 0 0  125 125 125   0 0 0  125 125 125   0 0 0  125 125 125   0 0 0  125 125 125   0 0 0  125 125 125   0 0 0  125 125 125   0 0 0  125 125 125   0 0 0  125 125 125   0 0 0  125 125 125   0 0 0  125 125 125   0 0 0  125 125 125   0 0 0  125 125 125   0 0 0  125 125 125   0 0 0  125 125 125   0 0 0  125 125 125   0 0 0  125 125 125   0 0 0  125 125 125   0 0 0  125 125 125   0 0 0  125 125 125   0 0 0  125 125 125   0 0 0  125 125 125   0 0 0  125 125 125   0 0 0  125 125 125   0 0 0  125 125 125   0 0 0  125 125 125   0 0 0  125 125 125   0 0 0  125 125 125   0 0 0  125 125 125   0 0 0  125 125 125   0 0 0  125 125 125   0 0 0  125 125 125   0 0 0  125 125 125   0 0 0  125 125 125   0 0 0  125 125 125   0 0 0  125 125 125   0 0 0  125 125 125   0 0 0  125 125 125   0 0 0  125 125 125   0 0 0  125 125 125   0 0 0  125 125 125   0 0 0  

0 0 0  120 120 120   0 0 0  120 120 120   0 0 0  120 120 120   0 0 0  120 120 120   0 0 0  120 120 120   0 0 0  120 120 120   0 0 0  120 120 120   0 0 0  120 120 120   0 0 0  120 120 120   0 0 0  120 120 120   0 0 0  120 120 120   0 0 0  120 120 120   0 0 0  120 120 120   0 0 0  120 120 120   0 0 0  120 120 120   0 0 0  120 120 120   0 0 0  120 120 120   0 0 0  120 120 120   0 0 0  120 120 120   0 0 0  120 120 120   0 0 0  120 120 120   0 0 0  120 120 120   0 0 0  120 120 120   0 0 0  120 120 120   0 0 0  120 120 120   0 0 0  120 120 120   0 0 0  120 120 120   0 0 0  120 120 120   0 0 0  120 120 120   0 0 0  120 120 120   0 0 0  120 120 120   0 0 0  120 120 120   0 0 0  120 120 120   0 0 0  120 120 120   0 0 0  120 120 120   0 0 0  120 120 120   0 0 0  120 120 120   0 0 0  120 120 120   0 0 0  120 120 120   0 0 0  120 120 120   0 0 0  120 120 120   0 0 0  120 120 120   0 0 0  120 120 120   0 0 0  120 120 120   0 0 0  120 120 120   0 0 0  120 120 120   0 0 0  120 120 120   0 0 0  120 120 120   0 0 0  120 120 120   0 0 0  120 120 120   

115 115 115   0 0 0  115 115 115   0 0 0  115 115 115   0 0 0  115 115 115   0 0 0  115 115 115   0 0 0  115 115 115   0 0 0  115 115 115   0 0 0  115 115 115   0 0 0  115 115 115   0 0 0  115 115 115   0 0 0  115 115 115   0 0 0  115 115 115   0 0 0  115 115 115   0 0 0  115 115 115   0 0 0  115 115 115   0 0 0  115 115 115   0 0 0  115 115 115   0 0 0  115 115 115   0 0 0  115 115 115   0 0 0  115 115 115   0 0 0  115 115 115   0 0 0  115 115 115   0 0 0  115 115 115   0 0 0  115 115 115   0 0 0  115 115 115   0 0 0  115 115 115   0 0 0  115 115 115   0 0 0  115 115 115   0 0 0  115 115 115   0 0 0  115 115 115   0 0 0  115 115 115   0 0 0  115 115 115   0 0 0  115 115 115   0 0 0  115 115 115   0 0 0  115 115 115   0 0 0  115 115 115   0 0 0  115 115 115   0 0 0  115 115 115   0 0 0  115 115 115   0 0 0  115 115 115   0 0 0  115 115 115   0 0 0  115 115 115   0 0 0  115 115 115   0 0 0  115 115 115   0 0 0  115 115 115   0 0 0  115 115 115   0 0 0  115 115 115   0 0 0  115 115 115   0 0 0  115 115 115   0 0 0  115 115 115   0 0 0  

0 0 0  110 110 110   0 0 0  110 110 110   0 0 0  110 110 110   0 0 0  110 110 110   0 0 0  110 110 110   0 0 0  110 110 110   0 0 0  110 110 110   0 0 0  110 110 110   0 0 0  110 110 110   0 0 0  110 110 110   0 0 0  110 110 110   0 0 0  110 110 110   0 0 0  110 110 110   0 0 0  110 110 110   0 0 0  110 110 110   0 0 0  110 110 110   0 0 0  110 110 110   0 0 0  110 110 110   0 0 0  110 110 110   0 0 0  110 110 110   0 0 0  110 110 110   0 0 0  110 110 110   0 0 0  110 110 110   0 0 0  110 110 110   0 0 0  110 110 110   0 0 0  110 110 110   0 0 0  110 110 110   0 0 0  110 110 110   0 0 0  110 110 110   0 0 0  110 110 110   0 0 0  110 110 110   0 0 0  110 110 110   0 0 0  110 110 110   0 0 0  110 110 110   0 0 0  110 110 110   0 0 0  110 110 110   0 0 0  110 110 110   0 0 0  110 110 110   0 0 0  110 110 110   0 0 0  110 110 110   0 0 0  110 110 110   0 0 0  110 110 110   0 0 0  110 110 110   0 0 0  110 110 110   0 0 0  110 110 110   0 0 0  110 110 110   0 0 0  110 110 110   0 0 0  110 110 110   0 0 0  110 110 110   0 0 0  110 110 110   

105 105 105   0 0 0  105 105 105   0 0 0  105 105 105   0 0 0  105 105 105   0 0 0  105 105 105   0 0 0  105 105 105   0 0 0  105 105 105   0 0 0  105 105 105   0 0 0  105 105 105   0 0 0  105 105 105   0 0 0  105 105 105   0 0 0  105 105 105   0 0 0  105 105 105   0 0 0  105 105 105   0 0 0  105 105 105   0 0 0  105 105 105   0 0 0  105 105 105   0 0 0  105 105 105   0 0 0  105 105 105   0 0 0  105 105 105   0 0 0  105 105 105   0 0 0  105 105 105   0 0 0  105 105 105   0 0 0  105 105 105   0 0 0  105 105 105   0 0 0  105 105 105   0 0 0  105 105 105   0 0 0  105 105 105   0 0 0  105 105 105   0 0 0  105 105 105   0 0 0  105 105 105   0 0 0  105 105 105   0 0 0  105 105 105   0 0 0  105 105 105   0 0 0  105 105 105   0 0 0  105 105 105   0 0 0  105 105 105   0 0 0  105 105 105   0 0 0  105 105 105   0 0 0  105 105 105   0 0 0  105 105 105   0 0 0  105 105 105   0 0 0  105 105 105   0 0 0  105 105 105   0 0 0  105 105 105   0 0 0  105 105 105   0 0 0  105 105 105   0 0 0  105 105 105   0 0 0  105 105 105   0 0 0  105 105 105   0 0 0  

0 0 0  100 100 100   0 0 0  100 100 100   0 0 0  100 100 100   0 0 0  100 100 100   0 0 0  100 100 100   0 0 0  100 100 100   0 0 0  100 100 100   0 0 0  100 100 100   0 0 0  100 100 100   0 0 0  100 100 100   0 0 0  100 100 100   0 0 0  100 100 100   0 0 0  100 100 100   0 0 0  100 100 100   0 0 0  100 100 100   0 0 0  100 100 100   0 0 0  100 100 100   0 0 0  100 100 100   0 0 0  100 100 100   0 0 0  100 100 100   0 0 0  100 100 100   0 0 0  100 100 100   0 0 0  100 100 100   0 0 0  100 100 100   0 0 0  100 100 100   0 0 0  100 100 100   0 0 0  100 100 100   0 0 0  100 100 100   0 0 0  100 100 100   0 0 0  100 100 100   0 0 0  100 100 100   0 0 0  100 100 100   0 0 0  100 100 100   0 0 0  100 100 100   0 0 0  100 100 100   0 0 0  100 100 100   0 0 0  100 100 100   0 0 0  100 100 100   0 0 0  100 100 100   0 0 0  100 100 100   0 0 0  100 100 100   0 0 0  100 100 100   0 0 0  100 100 100   0 0 0  100 100 100   0 0 0  100 100 100   0 0 0  100 100 100   0 0 0  100 100 100   0 0 0  100 100 100   0 0 0  100 100 100   0 0 0  100 100 100   

95 95 95   0 0 0  95 95 95   0 0 0  95 95 95   0 0 0  95 95 95   0 0 0  95 95 95   0 0 0  95 95 95   0 0 0  95 95 95   0 0 0  95 95 95   0 0 0  95 95 95   0 0 0  95 95 95   0 0 0  95 95 95   0 0 0  95 95 95   0 0 0  95 95 95   0 0 0  95 95 95   0 0 0  95 95 95   0 0 0  95 95 95   0 0 0  95 95 95   0 0 0  95 95 95   0 0 0  95 95 95   0 0 0  95 95 95   0 0 0  95 95 95   0 0 0  95 95 95   0 0 0  95 95 95   0 0 0  95 95 95   0 0 0  95 95 95   0 0 0  95 95 95   0 0 0  95 95 95   0 0 0  95 95 95   0 0 0  95 95 95   0 0 0  95 95 95   0 0 0  95 95 95   0 0 0  95 95 95   0 0 0  95 95 95   0 0 0  95 95 95   0 0 0  95 95 95   0 0 0  95 95 95   0 0 0  95 95 95   0 0 0  95 95 95   0 0 0  95 95 95   0 0 0  95 95 95   0 0 0  95 95 95   0 0 0  95 95 95   0 0 0  95 95 95   0 0 0  95 95 95   0 0 0  95 95 95   0 0 0  95 95 95   0 0 0  95 95 95   0 0 0  95 95 95   0 0 0  95 95 95   0 0 0  95 95 95   0 0 0  

0 0 0  90 90 90   0 0 0  90 90 90   0 0 0  90 90 90   0 0 0  90 90 90   0 0 0  90 90 90   0 0 0  90 90 90   0 0 0  90 90 90   0 0 0  90 90 90   0 0 0  90 90 90   0 0 0  90 90 90   0 0 0  90 90 90   0 0 0  90 90 90   0 0 0  90 90 90   0 0 0  90 90 90   0 0 0  90 90 90   0 0 0  90 90 90   0 0 0  90 90 90   0 0 0  90 90 90   0 0 0  90 90 90   0 0 0  90 90 90   0 0 0  90 90 90   0 0 0  90 90 90   0 0 0  90 90 90   0 0 0  90 90 90   0 0 0  90 90 90   0 0 0  90 90 90   0 0 0  90 90 90   0 0 0  90 90 90   0 0 0  90 90 90   0 0 0  90 90 90   0 0 0  90 90 90   0 0 0  90 90 90   0 0 0  90 90 90   0 0 0  90 90 90   0 0 0  90 90 90   0 0 0  90 90 90   0 0 0  90 90 90   0 0 0  90 90 90   0 0 0  90 90 90   0 0 0  90 90 90   0 0 0  90 90 90   0 0 0  90 90 90   0 0 0  90 90 90   0 0 0  90 90 90   0 0 0  90 90 90   0 0 0  90 90 90   0 0 0  90 90 90   0 0 0  90 90 90   0 0 0  90 90 90   0 0 0  90 90 90   

85 85 85   0 0 0  85 85 85   0 0 0  85 85 85   0 0 0  85 85 85   0 0 0  85 85 85   0 0 0  85 85 85   0 0 0  85 85 85   0 0 0  85 85 85   0 0 0  85 85 85   0 0 0  85 85 85   0 0 0  85 85 85   0 0 0  85 85 85   0 0 0  85 85 85   0 0 0  85 85 85   0 0 0  85 85 85   0 0 0  85 85 85   0 0 0  85 85 85   0 0 0  85 85 85   0 0 0  85 85 85   0 0 0  85 85 85   0 0 0  85 85 85   0 0 0  85 85 85   0 0 0  85 85 85   0 0 0  85 85 85   0 0 0  85 85 85   0 0 0  85 85 85   0 0 0  85 85 85   0 0 0  85 85 85   0 0 0  85 85 85   0 0 0  85 85 85   0 0 0  85 85 85   0 0 0  85 85 85   0 0 0  85 85 85   0 0 0  85 85 85   0 0 0  85 85 85   0 0 0  85 85 85   0 0 0  85 85 85   0 0 0  85 85 85   0 0 0  85 85 85   0 0 0  85 85 85   0 0 0  85 85 85   0 0 0  85 85 85   0 0 0  85 85 85   0 0 0  85 85 85   0 0 0  85 85 85   0 0 0  85 85 85   0 0 0  85 85 85   0 0 0  85 85 85   0 0 0  85 85 85   0 0 0  85 85 85   0 0 0  

0 0 0  80 80 80   0 0 0  80 80 80   0 0 0  80 80 80   0 0 0  80 80 80   0 0 0  80 80 80   0 0 0  80 80 80   0 0 0  80 80 80   0 0 0  80 80 80   0 0 0  80 80 80   0 0 0  80 80 80   0 0 0  80 80 80   0 0 0  80 80 80   0 0 0  80 80 80   0 0 0  80 80 80   0 0 0  80 80 80   0 0 0  80 80 80   0 0 0  80 80 80   0 0 0  80 80 80   0 0 0  80 80 80   0 0 0  80 80 80   0 0 0  80 80 80   0 0 0  80 80 80   0 0 0  80 80 80   0 0 0  80 80 80   0 0 0  80 80 80   0 0 0  80 80 80   0 0 0  80 80 80   0 0 0  80 80 80   0 0 0  80 80 80   0 0 0  80 80 80   0 0 0  80 80 80   0 0 0  80 80 80   0 0 0  80 80 80   0 0 0  80 80 80   0 0 0  80 80 80   0 0 0  80 80 80   0 0 0  80 80 80   0 0 0  80 80 80   0 0 0  80 80 80   0 0 0  80 80 80   0 0 0  80 80 80   0 0 0  80 80 80   0 0 0  80 80 80   0 0 0  80 80 80   0 0 0  80 80 80   0 0 0  80 80 80   0 0 0  80 80 80   0 0 0  80 80 80   0 0 0  80 80 80   0 0 0  80 80 80   

75 75 75   0 0 0  75 75 75   0 0 0  75 75 75   0 0 0  75 75 75   0 0 0  75 75 75   0 0 0  75 75 75   0 0 0  75 75 75   0 0 0  75 75 75   0 0 0  75 75 75   0 0 0  75 75 75   0 0 0  75 75 75   0 0 0  75 75 75   0 0 0  75 75 75   0 0 0  75 75 75   0 0 0  75 75 75   0 0 0  75 75 75   0 0 0  75 75 75   0 0 0  75 75 75   0 0 0  75 75 75   0 0 0  75 75 75   0 0 0  75 75 75   0 0 0  75 75 75   0 0 0  75 75 75   0 0 0  75 75 75   0 0 0  75 75 75   0 0 0  75 75 75   0 0 0  75 75 75   0 0 0  75 75 75   0 0 0  75 75 75   0 0 0  75 75 75   0 0 0  75 75 75   0 0 0  75 75 75   0 0 0  75 75 75   0 0 0  75 75 75   0 0 0  75 75 75   0 0 0  75 75 75   0 0 0  75 75 75   0 0 0  75 75 75   0 0 0  75 75 75   0 0 0  75 75 75   0 0 0  75 75 75   0 0 0  75 75 75   0 0 0  75 75 75   0 0 0  75 75 75   0 0 0  75 75 75   0 0 0  75 75 75   0 0 0  75 75 75   0 0 0  75 75 75   0 0 0  75 75 75   0 0 0  75 75 75   0 0 0  

0 0 0  70 70 70   0 0 0  70 70 70   0 0 0  70 70 70   0 0 0  70 70 70   0 0 0  70 70 70   0 0 0  70 70 70   0 0 0  70 70 70   0 0 0  70 70 70   0 0 0  70 70 70   0 0 0  70 70 70   0 0 0  70 70 70   0 0 0  70 70 70   0 0 0  70 70 70   0 0 0  70 70 70   0 0 0  70 70 70   0 0 0  70 70 70   0 0 0  70 70 70   0 0 0  70 70 70   0 0 0  70 70 70   0 0 0  70 70 70   0 0 0  70 70 70   0 0 0  70 70 70   0 0 0  70 70 70   0 0 0  70 70 70   0 0 0  70 70 70   0 0 0  70 70 70   0 0 0  70 70 70   0 0 0  70 70 70   0 0 0  70 70 70   0 0 0  70 70 70   0 0 0  70 70 70   0 0 0  70 70 70   0 0 0  70 70 70   0 0 0  70 70 70   0 0 0  70 70 70   0 0 0  70 70 70   0 0 0  70 70 70   0 0 0  70 70 70   0 0 0  70 70 70   0 0 0  70 70 70   0 0 0  70 70 70   0 0 0  70 70 70   0 0 0  70 70 70   0 0 0  70 70 70   0 0 0  70 70 70   0 0 0  70 70 70   0 0 0  70 70 70   0 0 0  70 70 70   0 0 0  70 70 70   0 0 0  70 70 70   

65 65 65   0 0 0  65 65 65   0 0 0  65 65 65   0 0 0  65 65 65   0 0 0  65 65 65   0 0 0  65 65 65   0 0 0  65 65 65   0 0 0  65 65 65   0 0 0  65 65 65   0 0 0  65 65 65   0 0 0  65 65 65   0 0 0  65 65 65   0 0 0  65 65 65   0 0 0  65 65 65   0 0 0  65 65 65   0 0 0  65 65 65   0 0 0  65 65 65   0 0 0  65 65 65   0 0 0  65 65 65   0 0 0  65 65 65   0 0 0  65 65 65   0 0 0  65 65 65   0 0 0  65 65 65   0 0 0  65 65 65   0 0 0  65 65 65   0 0 0  65 65 65   0 0 0  65 65 65   0 0 0  65 65 65   0 0 0  65 65 65   0 0 0  65 65 65   0 0 0  65 65 65   0 0 0  65 65 65   0 0 0  65 65 65   0 0 0  65 65 65   0 0 0  65 65 65   0 0 0  65 65 65   0 0 0  65 65 65   0 0 0  65 65 65   0 0 0  65 65 65   0 0 0  65 65 65   0 0 0  65 65 65   0 0 0  65 65 65   0 0 0  65 65 65   0 0 0  65 65 65   0 0 0  65 65 65   0 0 0  65 65 65   0 0 0  65 65 65   0 0 0  65 65 65   0 0 0  65 65 65   0 0 0  65 65 65   0 0 0  

0 0 0  60 60 60   0 0 0  60 60 60   0 0 0  60 60 60   0 0 0  60 60 60   0 0 0  60 60 60   0 0 0  60 60 60   0 0 0  60 60 60   0 0 0  60 60 60   0 0 0  60 60 60   0 0 0  60 60 60   0 0 0  60 60 60   0 0 0  60 60 60   0 0 0  60 60 60   0 0 0  60 60 60   0 0 0  60 60 60   0 0 0  60 60 60   0 0 0  60 60 60   0 0 0  60 60 60   0 0 0  60 60 60   0 0 0  60 60 60   0 0 0  60 60 60   0 0 0  60 60 60   0 0 0  60 60 60   0 0 0  60 60 60   0 0 0  60 60 60   0 0 0  60 60 60   0 0 0  60 60 60   0 0 0  60 60 60   0 0 0  60 60 60   0 0 0  60 60 60   0 0 0  60 60 60   0 0 0  60 60 60   0 0 0  60 60 60   0 0 0  60 60 60   0 0 0  60 60 60   0 0 0  60 60 60   0 0 0  60 60 60   0 0 0  60 60 60   0 0 0  60 60 60   0 0 0  60 60 60   0 0 0  60 60 60   0 0 0  60 60 60   0 0 0  60 60 60   0 0 0  60 60 60   0 0 0  60 60 60   0 0 0  60 60 60   0 0 0  60 60 60   0 0 0  60 60 60   0 0 0  60 60 60   0 0 0  60 60 60   

55 55 55   0 0 0  55 55 55   0 0 0  55 55 55   0 0 0  55 55 55   0 0 0  55 55 55   0 0 0  55 55 55   0 0 0  55 55 55   0 0 0  55 55 55   0 0 0  55 55 55   0 0 0  55 55 55   0 0 0  55 55 55   0 0 0  55 55 55   0 0 0  55 55 55   0 0 0  55 55 55   0 0 0  55 55 55   0 0 0  55 55 55   0 0 0  55 55 55   0 0 0  55 55 55   0 0 0  55 55 55   0 0 0  55 55 55   0 0 0  55 55 55   0 0 0  55 55 55   0 0 0  55 55 55   0 0 0  55 55 55   0 0 0  55 55 55   0 0 0  55 55 55   0 0 0  55 55 55   0 0 0  55 55 55   0 0 0  55 55 55   0 0 0  55 55 55   0 0 0  55 55 55   0 0 0  55 55 55   0 0 0  55 55 55   0 0 0  55 55 55   0 0 0  55 55 55   0 0 0  55 55 55   0 0 0  55 55 55   0 0 0  55 55 55   0 0 0  55 55 55   0 0 0  55 55 55   0 0 0  55 55 55   0 0 0  55 55 55   0 0 0  55 55 55   0 0 0  55 55 55   0 0 0  55 55 55   0 0 0  55 55 55   0 0 0  55 55 55   0 0 0  55 55 55   0 0 0  55 55 55   0 0 0  55 55 55   0 0 0  

0 0 0  50 50 50   0 0 0  50 50 50   0 0 0  50 50 50   0 0 0  50 50 50   0 0 0  50 50 50   0 0 0  50 50 50   0 0 0  50 50 50   0 0 0  50 50 50   0 0 0  50 50 50   0 0 0  50 50 50   0 0 0  50 50 50   0 0 0  50 50 50   0 0 0  50 50 50   0 0 0  50 50 50   0 0 0  50 50 50   0 0 0  50 50 50   0 0 0  50 50 50   0 0 0  50 50 50   0 0 0  50 50 50   0 0 0  50 50 50   0 0 0  50 50 50   0 0 0  50 50 50   0 0 0  50 50 50   0 0 0  50 50 50   0 0 0  50 50 50   0 0 0  50 50 50   0 0 0  50 50 50   0 0 0  50 50 50   0 0 0  50 50 50   0 0 0  50 50 50   0 0 0  50 50 50   0 0 0  50 50 50   0 0 0  50 50 50   0 0 0  50 50 50   0 0 0  50 50 50   0 0 0  50 50 50   0 0 0  50 50 50   0 0 0  50 50 50   0 0 0  50 50 50   0 0 0  50 50 50   0 0 0  50 50 50   0 0 0  50 50 50   0 0 0  50 50 50   0 0 0  50 50 50   0 0 0  50 50 50   0 0 0  50 50 50   0 0 0  50 50 50   0 0 0  50 50 50   0 0 0  50 50 50   0 0 0  50 50 50   

45 45 45   0 0 0  45 45 45   0 0 0  45 45 45   0 0 0  45 45 45   0 0 0  45 45 45   0 0 0  45 45 45   0 0 0  45 45 45   0 0 0  45 45 45   0 0 0  45 45 45   0 0 0  45 45 45   0 0 0  45 45 45   0 0 0  45 45 45   0 0 0  45 45 45   0 0 0  45 45 45   0 0 0  45 45 45   0 0 0  45 45 45   0 0 0  45 45 45   0 0 0  45 45 45   0 0 0  45 45 45   0 0 0  45 45 45   0 0 0  45 45 45   0 0 0  45 45 45   0 0 0  45 45 45   0 0 0  45 45 45   0 0 0  45 45 45   0 0 0  45 45 45   0 0 0  45 45 45   0 0 0  45 45 45   0 0 0  45 45 45   0 0 0  45 45 45   0 0 0  45 45 45   0 0 0  45 45 45   0 0 0  45 45 45   0 0 0  45 45 45   0 0 0  45 45 45   0 0 0  45 45 45   0 0 0  45 45 45   0 0 0  45 45 45   0 0 0  45 45 45   0 0 0  45 45 45   0 0 0  45 45 45   0 0 0  45 45 45   0 0 0  45 45 45   0 0 0  45 45 45   0 0 0  45 45 45   0 0 0  45 45 45   0 0 0  45 45 45   0 0 0  45 45 45   0 0 0  45 45 45   0 0 0  45 45 45   0 0 0  

0 0 0  40 40 40   0 0 0  40 40 40   0 0 0  40 40 40   0 0 0  40 40 40   0 0 0  40 40 40   0 0 0  40 40 40   0 0 0  40 40 40   0 0 0  40 40 40   0 0 0  40 40 40   0 0 0  40 40 40   0 0 0  40 40 40   0 0 0  40 40 40   0 0 0  40 40 40   0 0 0  40 40 40   0 0 0  40 40 40   0 0 0  40 40 40   0 0 0  40 40 40   0 0 0  40 40 40   0 0 0  40 40 40   0 0 0  40 40 40   0 0 0  40 40 40   0 0 0  40 40 40   0 0 0  40 40 40   0 0 0  40 40 40   0 0 0  40 40 40   0 0 0  40 40 40   0 0 0  40 40 40   0 0 0  40 40 40   0 0 0  40 40 40   0 0 0  40 40 40   0 0 0  40 40 40   0 0 0  40 40 40   0 0 0  40 40 40   0 0 0  40 40 40   0 0 0  40 40 40   0 0 0  40 40 40   0 0 0  40 40 40   0 0 0  40 40 40   0 0 0  40 40 40   0 0 0  40 40 40   0 0 0  40 40 40   0 0 0  40 40 40   0 0 0  40 40 40   0 0 0  40 40 40   0 0 0  40 40 40   0 0 0  40 40 40   0 0 0  40 40 40   0 0 0  40 40 40   0 0 0  40 40 40   0 0 0  40 40 40   

35 35 35   0 0 0  35 35 35   0 0 0  35 35 35   0 0 0  35 35 35   0 0 0  35 35 35   0 0 0  35 35 35   0 0 0  35 35 35   0 0 0  35 35 35   0 0 0  35 35 35   0 0 0  35 35 35   0 0 0  35 35 35   0 0 0  35 35 35   0 0 0  35 35 35   0 0 0  35 35 35   0 0 0  35 35 35   0 0 0  35 35 35   0 0 0  35 35 35   0 0 0  35 35 35   0 0 0  35 35 35   0 0 0  35 35 35   0 0 0  35 35 35   0 0 0  35 35 35   0 0 0  35 35 35   0 0 0  35 35 35   0 0 0  35 35 35   0 0 0  35 35 35   0 0 0  35 35 35   0 0 0  35 35 35   0 0 0  35 35 35   0 0 0  35 35 35   0 0 0  35 35 35   0 0 0  35 35 35   0 0 0  35 35 35   0 0 0  35 35 35   0 0 0  35 35 35   0 0 0  35 35 35   0 0 0  35 35 35   0 0 0  35 35 35   0 0 0  35 35 35   0 0 0  35 35 35   0 0 0  35 35 35   0 0 0  35 35 35   0 0 0  35 35 35   0 0 0  35 35 35   0 0 0  35 35 35   0 0 0  35 35 35   0 0 0  35 35 35   0 0 0  35 35 35   0 0 0  35 35 35   0 0 0  35 35 35   0 0 0  

0 0 0  30 30 30   0 0 0  30 30 30   0 0 0  30 30 30   0 0 0  30 30 30   0 0 0  30 30 30   0 0 0  30 30 30   0 0 0  30 30 30   0 0 0  30 30 30   0 0 0  30 30 30   0 0 0  30 30 30   0 0 0  30 30 30   0 0 0  30 30 30   0 0 0  30 30 30   0 0 0  30 30 30   0 0 0  30 30 30   0 0 0  30 30 30   0 0 0  30 30 30   0 0 0  30 30 30   0 0 0  30 30 30   0 0 0  30 30 30   0 0 0  30 30 30   0 0 0  30 30 30   0 0 0  30 30 30   0 0 0  30 30 30   0 0 0  30 30 30   0 0 0  30 30 30   0 0 0  30 30 30   0 0 0  30 30 30   0 0 0  30 30 30   0 0 0  30 30 30   0 0 0  30 30 30   0 0 0  30 30 30   0 0 0  30 30 30   0 0 0  30 30 30   0 0 0  30 30 30   0 0 0  30 30 30   0 0 0  30 30 30   0 0 0  30 30 30   0 0 0  30 30 30   0 0 0  30 30 30   0 0 0  30 30 30   0 0 0  30 30 30   0 0 0  30 30 30   0 0 0  30 30 30   0 0 0  30 30 30   0 0 0  30 30 30   0 0 0  30 30 30   0 0 0  30 30 30   0 0 0  30 30 30   0 0 0  30 30 30   

25 25 25   0 0 0  25 25 25   0 0 0  25 25 25   0 0 0  25 25 25   0 0 0  25 25 25   0 0 0  25 25 25   0 0 0  25 25 25   0 0 0  25 25 25   0 0 0  25 25 25   0 0 0  25 25 25   0 0 0  25 25 25   0 0 0  25 25 25   0 0 0  25 25 25   0 0 0  25 25 25   0 0 0  25 25 25   0 0 0  25 25 25   0 0 0  25 25 25   0 0 0  25 25 25   0 0 0  25 25 25   0 0 0  25 25 25   0 0 0  25 25 25   0 0 0  25 25 25   0 0 0  25 25 25   0 0 0  25 25 25   0 0 0  25 25 25   0 0 0  25 25 25   0 0 0  25 25 25   0 0 0  25 25 25   0 0 0  25 25 25   0 0 0  25 25 25   0 0 0  25 25 25   0 0 0  25 25 25   0 0 0  25 25 25   0 0 0  25 25 25   0 0 0  25 25 25   0 0 0  25 25 25   0 0 0  25 25 25   0 0 0  25 25 25   0 0 0  25 25 25   0 0 0  25 25 25   0 0 0  25 25 25   0 0 0  25 25 25   0 0 0  25 25 25   0 0 0  25 25 25   0 0 0  25 25 25   0 0 0  25 25 25   0 0 0  25 25 25   0 0 0  25 25 25   0 0 0  25 25 25   0 0 0  25 25 25   0 0 0  

0 0 0  20 20 20   0 0 0  20 20 20   0 0 0  20 20 20   0 0 0  20 20 20   0 0 0  20 20 20   0 0 0  20 20 20   0 0 0  20 20 20   0 0 0  20 20 20   0 0 0  20 20 20   0 0 0  20 20 20   0 0 0  20 20 20   0 0 0  20 20 20   0 0 0  20 20 20   0 0 0  20 20 20   0 0 0  20 20 20   0 0 0  20 20 20   0 0 0  20 20 20   0 0 0  20 20 20   0 0 0  20 20 20   0 0 0  20 20 20   0 0 0  20 20 20   0 0 0  20 20 20   0 0 0  20 20 20   0 0 0  20 20 20   0 0 0  20 20 20   0 0 0  20 20 20   0 0 0  20 20 20   0 0 0  20 20 20   0 0 0  20 20 20   0 0 0  20 20 20   0 0 0  20 20 20   0 0 0  20 20 20   0 0 0  20 20 20   0 0 0  20 20 20   0 0 0  20 20 20   0 0 0  20 20 20   0 0 0  20 20 20   0 0 0  20 20 20   0 0 0  20 20 20   0 0 0  20 20 20   0 0 0  20 20 20   0 0 0  20 20 20   0 0 0  20 20 20   0 0 0  20 20 20   0 0 0  20 20 20   0 0 0  20 20 20   0 0 0  20 20 20   0 0 0  20 20 20   0 0 0  20 20 20   0 0 0  20 20 20   

15 15 15   0 0 0  15 15 15   0 0 0  15 15 15   0 0 0  15 15 15   0 0 0  15 15 15   0 0 0  15 15 15   0 0 0  15 15 15   0 0 0  15 15 15   0 0 0  15 15 15   0 0 0  15 15 15   0 0 0  15 15 15   0 0 0  15 15 15   0 0 0  15 15 15   0 0 0  15 15 15   0 0 0  15 15 15   0 0 0  15 15 15   0 0 0  15 15 15   0 0 0  15 15 15   0 0 0  15 15 15   0 0 0  15 15 15   0 0 0  15 15 15   0 0 0  15 15 15   0 0 0  15 15 15   0 0 0  15 15 15   0 0 0  15 15 15   0 0 0  15 15 15   0 0 0  15 15 15   0 0 0  15 15 15   0 0 0  15 15 15   0 0 0  15 15 15   0 0 0  15 15 15   0 0 0  15 15 15   0 0 0  15 15 15   0 0 0  15 15 15   0 0 0  15 15 15   0 0 0  15 15 15   0 0 0  15 15 15   0 0 0  15 15 15   0 0 0  15 15 15   0 0 0  15 15 15   0 0 0  15 15 15   0 0 0  15 15 15   0 0 0  15 15 15   0 0 0  15 15 15   0 0 0  15 15 15   0 0 0  15 15 15   0 0 0  15 15 15   0 0 0  15 15 15   0 0 0  15 15 15   0 0 0  15 15 15   0 0 0  

0 0 0  10 10 10   0 0 0  10 10 10   0 0 0  10 10 10   0 0 0  10 10 10   0 0 0  10 10 10   0 0 0  10 10 10   0 0 0  10 10 10   0 0 0  10 10 10   0 0 0  10 10 10   0 0 0  10 10 10   0 0 0  10 10 10   0 0 0  10 10 10   0 0 0  10 10 10   0 0 0  10 10 10   0 0 0  10 10 10   0 0 0  10 10 10   0 0 0  10 10 10   0 0 0  10 10 10   0 0 0  10 10 10   0 0 0  10 10 10   0 0 0  10 10 10   0 0 0  10 10 10   0 0 0  10 10 10   0 0 0  10 10 10   0 0 0  10 10 10   0 0 0  10 10 10   0 0 0  10 10 10   0 0 0  10 10 10   0 0 0  10 10 10   0 0 0  10 10 10   0 0 0  10 10 10   0 0 0  10 10 10   0 0 0  10 10 10   0 0 0  10 10 10   0 0 0  10 10 10   0 0 0  10 10 10   0 0 0  10 10 10   0 0 0  10 10 10   0 0 0  10 10 10   0 0 0  10 10 10   0 0 0  10 10 10   0 0 0  10 10 10   0 0 0  10 10 10   0 0 0  10 10 10   0 0 0  10 10 10   0 0 0  10 10 10   0 0 0  10 10 10   0 0 0  10 10 10   0 0 0  10 10 10   0 0 0  10 10 10   

